<svg id="Layer_1" data-name="Layer 1" xmlns="http://www.w3.org/2000/svg" viewBox="0 0 283.46 283.46"><defs><style>.cls-1{font-size:72.63px;font-family:BahijTheSansArabic-Bold, Bahij TheSansArabic;font-weight:700;}.cls-1,.cls-3{fill:#28285c;}.cls-2{fill:#f39323;}.cls-4{fill:#f29323;}</style></defs><g id="text"><text class="cls-1" transform="translate(93.07 170.04) scale(0.75 1)">azaarri</text><circle class="cls-2" cx="248.97" cy="122.95" r="5.9"/></g><g id="bag"><path class="cls-3" d="M91.18,160.87c-.22,10-4.08,8.44-4.32,8.68s-52.71,1.51-56.58,0-2.84-9.44-2.84-9.44,7.5-52.68,8.52-58,4.21-6,4.21-6h8c0,2.54,1.29,4.55,2.83,4.55s2.8-2,2.84-4.58c7.76-.06,20.49-.11,23.52,0,4.43.19,5.23,7,5.23,7S91.41,150.86,91.18,160.87Z"/><rect class="cls-3" x="85.07" y="167.09" width="3.21" height="1.86" rx="0.91" transform="translate(-21.9 322.8) rotate(-117.66)"/></g><g id="Hand_bag" data-name="Hand bag"><ellipse class="cls-4" cx="50.9" cy="95.89" rx="1.91" ry="3.17"/><ellipse class="cls-4" cx="68.04" cy="87.18" rx="1.91" ry="3.17"/><ellipse class="cls-4" cx="52.8" cy="83.01" rx="1.91" ry="3.17"/><ellipse class="cls-4" cx="53.76" cy="88.55" rx="0.48" ry="0.79"/><ellipse class="cls-4" cx="70.97" cy="91.4" rx="0.48" ry="0.79"/><ellipse class="cls-4" cx="64.97" cy="84.01" rx="0.48" ry="0.79"/><ellipse class="cls-4" cx="49.96" cy="89.45" rx="1.36" ry="2.27"/><ellipse class="cls-4" cx="66.14" cy="78.52" rx="1.16" ry="1.93"/><ellipse class="cls-4" cx="68.1" cy="93.53" rx="0.99" ry="1.65"/><ellipse class="cls-4" cx="57.29" cy="75.7" rx="1.16" ry="1.93"/><ellipse class="cls-4" cx="61.54" cy="79.04" rx="1.48" ry="2.46"/><ellipse class="cls-4" cx="56.66" cy="81.96" rx="1.16" ry="1.93"/></g><g id="b"><path class="cls-4" d="M53.4,106.79v58.09a4.72,4.72,0,0,1-2.25.56H48.52a4.49,4.49,0,0,1-4.61-4.34V110.57a4.49,4.49,0,0,1,4.61-4.34h2.63A4.72,4.72,0,0,1,53.4,106.79Z"/><path class="cls-4" d="M83.18,148.5c0,9.35-8.52,16.94-19,16.94a20.78,20.78,0,0,1-6.21-.93v-8A10.16,10.16,0,0,0,61,157c5.26,0,9.52-3.8,9.52-8.48S66.3,140,61,140a10.47,10.47,0,0,0-3.1.46v-8a20.47,20.47,0,0,1,6.21-.93C74.66,131.57,83.18,139.15,83.18,148.5Z"/></g></svg>